# Blender 4.4.1
# www.blender.org
mtllib door_frame.mtl
o Cube
v 1.600000 2.700000 -0.100000
v 1.600000 0.000000 -0.100000
v 1.600000 2.700000 0.000000
v 1.600000 0.000000 0.000000
v 1.400000 2.700000 -0.100000
v 1.400000 2.700000 0.000000
v 1.400000 0.000000 -0.100000
v 1.400000 0.000000 0.000000
v 1.600000 2.900000 -0.100000
v 1.600000 2.900000 0.000000
v 1.400000 2.900000 -0.100000
v 1.400000 2.900000 0.000000
v -0.200000 2.700000 -0.100000
v -0.200000 2.700000 0.000000
v -0.200000 2.900000 -0.100000
v -0.200000 2.900000 0.000000
v 0.000000 2.900000 -0.100000
v 0.000000 2.700000 -0.100000
v 0.000000 2.700000 0.000000
v 0.000000 2.900000 0.000000
v -0.200000 -0.000000 -0.100000
v -0.200000 -0.000000 0.000000
v 0.000000 -0.000000 -0.100000
v 0.000000 -0.000000 0.000000
v 0.000000 -0.000000 -0.100000
v 0.000000 -0.000000 0.000000
v 0.000000 0.010000 -0.100000
v 0.000000 0.010000 0.000000
v 1.400000 -0.000000 -0.100000
v 1.400000 -0.000000 0.000000
v 1.400000 0.010000 -0.100000
v 1.400000 0.010000 0.000000
v 1.600000 -0.126164 0.000000
v 1.600000 -0.126164 -0.100000
v 1.400000 -0.126164 0.000000
v 1.400000 -0.126164 -0.100000
v -0.200000 -0.126164 -0.100000
v -0.200000 -0.126164 0.000000
v 0.000000 -0.126164 -0.100000
v 0.000000 -0.126164 0.000000
v 0.000000 -0.126164 -0.100000
v 0.000000 -0.126164 0.000000
v 1.400000 -0.126164 -0.100000
v 1.400000 -0.126164 0.000000
vn 1.0000 -0.0000 -0.0000
vn -1.0000 -0.0000 -0.0000
vn -0.0000 -0.0000 1.0000
vn -0.0000 -0.0000 -1.0000
vn -0.0000 1.0000 -0.0000
vn -0.0000 -1.0000 -0.0000
vt 0.375000 0.750000
vt 0.625000 0.750000
vt 0.625000 1.000000
vt 0.375000 1.000000
vt 0.000000 0.000000
s 0
usemtl Material
f 2/1/1 1/2/1 3/3/1 4/4/1
f 7/1/2 8/4/2 6/3/2 5/2/2
f 3/3/3 6/3/3 8/4/3 4/4/3
f 2/1/4 7/1/4 5/2/4 1/2/4
f 24/3/1 40/3/1 39/2/1 23/2/1
f 5/2/4 11/2/4 9/2/4 1/2/4
f 9/2/5 11/2/5 12/3/5 10/3/5
f 18/2/4 13/2/4 15/2/4 17/2/4
f 1/2/1 9/2/1 10/3/1 3/3/1
f 3/3/3 10/3/3 12/3/3 6/3/3
f 14/3/2 16/3/2 15/2/2 13/2/2
f 19/3/1 24/3/1 23/2/1 18/2/1
f 17/2/5 15/2/5 16/3/5 20/3/5
f 20/3/3 16/3/3 14/3/3 19/3/3
f 12/3/3 20/3/3 19/3/3 6/3/3
f 11/2/5 17/2/5 20/3/5 12/3/5
f 6/3/6 19/3/6 18/2/6 5/2/6
f 5/2/4 18/2/4 17/2/4 11/2/4
f 8/4/3 35/4/3 33/4/3 4/4/3
f 14/3/3 22/3/3 24/3/3 19/3/3
f 13/2/2 21/2/2 22/3/2 14/3/2
f 18/2/4 23/2/4 21/2/4 13/2/4
f 30/5/1 44/5/1 43/5/1 29/5/1
f 29/5/1 31/5/1 32/5/1 30/5/1
f 27/5/4 31/5/4 29/5/4 25/5/4
f 28/5/5 32/5/5 31/5/5 27/5/5
f 26/5/3 30/5/3 32/5/3 28/5/3
f 33/4/6 35/4/6 36/1/6 34/1/6
f 40/3/6 38/3/6 37/2/6 39/2/6
f 41/5/6 43/5/6 44/5/6 42/5/6
f 26/5/3 42/5/3 44/5/3 30/5/3
f 25/5/2 41/5/2 42/5/2 26/5/2
f 4/4/1 33/4/1 34/1/1 2/1/1
f 21/2/2 37/2/2 38/3/2 22/3/2
f 7/1/2 36/1/2 35/4/2 8/4/2
f 29/5/4 43/5/4 41/5/4 25/5/4
f 23/2/4 39/2/4 37/2/4 21/2/4
f 22/3/3 38/3/3 40/3/3 24/3/3
f 2/1/4 34/1/4 36/1/4 7/1/4
