# Blender 4.4.1
# www.blender.org
mtllib door_door.mtl
o Cube.001
v 1.400000 2.700000 -0.070000
v 1.400000 0.020000 -0.070000
v 1.400000 2.700000 -0.030000
v 1.400000 0.020000 -0.030000
v 0.000000 2.700000 -0.070000
v 0.000000 0.020000 -0.070000
v 0.000000 2.700000 -0.030000
v 0.000000 0.020000 -0.030000
v 1.295678 1.310272 -0.063332
v 1.295678 1.353391 -0.063332
v 1.295678 1.310272 -0.106450
v 1.295678 1.353391 -0.106450
v 1.338797 1.310272 -0.063332
v 1.338797 1.353391 -0.063332
v 1.338797 1.310272 -0.106450
v 1.338797 1.353391 -0.106450
v 1.279941 1.353391 -0.127297
v 1.279941 1.310272 -0.127297
v 1.338797 1.310272 -0.127297
v 1.338797 1.353391 -0.127297
v 1.279941 1.353391 -0.148857
v 1.279941 1.310272 -0.148857
v 1.327812 1.310272 -0.148857
v 1.327812 1.353391 -0.148857
v 1.107468 1.353391 -0.127297
v 1.107468 1.310272 -0.127297
v 1.107468 1.353391 -0.148857
v 1.107468 1.310272 -0.148857
v 1.295678 1.353391 -0.040441
v 1.295678 1.310273 -0.040441
v 1.295678 1.353391 0.002678
v 1.295678 1.310273 0.002678
v 1.338797 1.353391 -0.040441
v 1.338797 1.310273 -0.040441
v 1.338797 1.353391 0.002678
v 1.338797 1.310273 0.002678
v 1.279941 1.310273 0.023525
v 1.279941 1.353391 0.023525
v 1.338797 1.353391 0.023525
v 1.338797 1.310273 0.023525
v 1.279941 1.310273 0.045084
v 1.279941 1.353391 0.045084
v 1.327812 1.353391 0.045084
v 1.327812 1.310273 0.045084
v 1.107468 1.310273 0.023525
v 1.107468 1.353391 0.023525
v 1.107468 1.310273 0.045084
v 1.107468 1.353391 0.045084
vn -0.0000 1.0000 -0.0000
vn -0.0000 -0.0000 1.0000
vn -1.0000 -0.0000 -0.0000
vn 1.0000 -0.0000 -0.0000
vn -0.0000 -1.0000 -0.0000
vn -0.0000 -0.0000 -1.0000
vn -0.7981 -0.0000 0.6025
vn 0.8910 -0.0000 -0.4540
vn -0.7981 -0.0000 -0.6025
vn 0.8910 -0.0000 0.4540
vt 0.375000 0.000000
vt 0.625000 0.000000
vt 0.625000 0.250000
vt 0.375000 0.250000
vt 0.625000 0.500000
vt 0.375000 0.500000
vt 0.625000 0.750000
vt 0.375000 0.750000
vt 0.625000 1.000000
vt 0.375000 1.000000
vt 0.125000 0.500000
vt 0.125000 0.750000
vt 0.875000 0.500000
vt 0.875000 0.750000
s 0
usemtl Material
f 1/1/1 5/2/1 7/3/1 3/4/1
f 4/4/2 3/3/2 7/5/2 8/6/2
f 8/6/3 7/5/3 5/7/3 6/8/3
f 2/8/4 1/7/4 3/9/4 4/10/4
f 6/11/5 2/6/5 4/8/5 8/12/5
f 6/5/6 5/13/6 1/14/6 2/7/6
f 9/1/3 10/2/3 12/3/3 11/4/3
f 11/4/7 12/3/7 17/3/7 18/4/7
f 15/6/4 16/5/4 14/7/4 13/8/4
f 13/8/2 14/7/2 10/9/2 9/10/2
f 11/11/5 15/6/5 13/8/5 9/12/5
f 16/5/1 12/13/1 10/14/1 14/7/1
f 17/13/1 20/5/1 24/5/1 21/13/1
f 16/5/4 15/6/4 19/6/4 20/5/4
f 15/6/5 11/11/5 18/11/5 19/6/5
f 12/13/1 16/5/1 20/5/1 17/13/1
f 22/4/6 21/3/6 24/5/6 23/6/6
f 17/13/1 21/13/1 27/13/1 25/13/1
f 20/5/8 19/6/8 23/6/8 24/5/8
f 19/6/5 18/11/5 22/11/5 23/6/5
f 26/4/3 25/3/3 27/3/3 28/4/3
f 18/4/2 17/3/2 25/3/2 26/4/2
f 22/11/5 18/11/5 26/11/5 28/11/5
f 21/3/6 22/4/6 28/4/6 27/3/6
f 29/1/3 30/2/3 32/3/3 31/4/3
f 31/4/9 32/3/9 37/3/9 38/4/9
f 35/6/4 36/5/4 34/7/4 33/8/4
f 33/8/6 34/7/6 30/9/6 29/10/6
f 31/11/1 35/6/1 33/8/1 29/12/1
f 36/5/5 32/13/5 30/14/5 34/7/5
f 37/13/5 40/5/5 44/5/5 41/13/5
f 36/5/4 35/6/4 39/6/4 40/5/4
f 35/6/1 31/11/1 38/11/1 39/6/1
f 32/13/5 36/5/5 40/5/5 37/13/5
f 42/4/2 41/3/2 44/5/2 43/6/2
f 37/13/5 41/13/5 47/13/5 45/13/5
f 40/5/10 39/6/10 43/6/10 44/5/10
f 39/6/1 38/11/1 42/11/1 43/6/1
f 46/4/3 45/3/3 47/3/3 48/4/3
f 38/4/6 37/3/6 45/3/6 46/4/6
f 42/11/1 38/11/1 46/11/1 48/11/1
f 41/3/2 42/4/2 48/4/2 47/3/2
