# Blender 4.3.2
# www.blender.org
mtllib untitled.mtl
o Cube
v 1.000000 0.000000 -1.000000
v -10.000000 0.000000 6.670588
v 1.000000 0.000000 11.000000
v 1.000000 0.000000 6.670588
v -10.000000 0.000000 -1.000000
v -10.000000 0.000000 9.541177
v -10.000000 0.000000 11.000000
v 1.000000 0.000000 9.541177
v 8.995562 0.000000 6.670588
v 8.995562 0.000000 9.541177
v 5.938435 0.000000 6.670588
v 5.938435 0.000000 9.541177
v 8.995562 0.000000 1.332376
v 5.938435 0.000000 1.332376
v 5.938435 0.000000 4.142581
v 8.995562 0.000000 4.142581
v 15.344978 0.000000 1.332376
v 15.344978 0.000000 4.142581
v -2.365084 0.000000 9.541177
v -2.365084 0.000000 11.000000
v -2.365084 0.000000 -1.000000
v -2.365084 0.000000 6.670588
v 1.000000 1.316916 -6.526343
v -2.365084 1.316916 -6.526343
v 1.000000 1.316916 -10.006763
v -2.365084 1.316916 -10.006763
v 8.332440 1.316916 -6.526343
v 8.332440 1.316916 -10.006763
v 8.995562 0.000000 -13.576988
v 15.344978 0.000000 -13.576988
v 1.000000 1.316916 -19.909542
v 8.332440 1.316916 -19.909542
v 1.000000 1.316916 -14.958153
v 8.332440 1.316916 -14.958153
v 8.332440 1.316916 -18.223997
v 1.000000 1.316916 -18.223997
v -8.566453 1.316916 -14.958153
v -8.566453 1.316916 -18.223997
v -12.037467 1.316916 -14.958153
v -12.037467 1.316916 -18.223997
v -8.566453 1.316916 -12.192629
v -12.037467 1.316916 -12.192629
v -8.566453 1.316916 -24.365179
v -12.037467 1.316916 -24.365179
v -8.566453 1.316916 -3.049470
v -12.037467 1.316916 -3.049470
v -5.180098 1.316916 -12.192629
v -5.180098 1.316916 -3.049470
v -14.605453 1.316916 -12.192629
v -14.605453 1.316916 -3.049470
v -8.566453 1.316916 -6.266507
v -12.037467 1.316916 -6.266507
v -5.180098 1.316916 -6.266507
v -14.605453 1.316916 -6.266507
v -24.030809 1.316916 -3.049470
v -24.030809 1.316916 -6.266507
v -20.700893 1.316916 -3.049470
v -20.700893 1.316916 -6.266507
v -13.978968 0.000000 6.670588
v -13.978968 0.000000 9.541177
v -24.030809 1.316916 9.534512
v -20.700893 1.316916 9.534512
v -20.700893 1.316916 0.344445
v -24.030809 1.316916 0.344445
v -24.030809 1.316916 3.540380
v -20.700893 1.316916 3.540380
v -19.628548 1.316916 0.344445
v -19.628548 1.316916 3.540380
v -11.501295 1.316916 0.344445
v -11.501295 1.316916 3.540380
v -19.628548 1.316916 -2.308200
v -11.501295 1.316916 -2.308200
v -19.628548 1.316916 6.023707
v -11.501295 1.316916 6.023707
v -20.700893 1.316916 6.673891
v -2.163850 1.316916 -14.958153
v -24.030809 1.316916 6.673891
v -2.163850 1.316916 -18.223997
v -4.805624 1.316916 -18.223997
v -4.805624 1.316916 -14.958153
v -2.163850 1.316916 -25.166023
v -4.805624 1.316916 -25.166023
v -4.805624 1.316916 -22.503790
v -2.163850 1.316916 -22.503790
v -0.098173 1.316916 -25.166023
v -0.098173 1.316916 -22.503790
v 7.961350 1.316916 -25.166023
v 7.961350 1.316916 -22.503790
v -0.098173 1.316916 -20.709023
v 7.961350 1.316916 -20.709023
v -0.098173 1.316916 -28.823286
v 7.961350 1.316916 -28.823286
v 5.421585 1.316916 -25.166023
v 5.421585 1.316916 -22.503790
v 5.421585 1.316916 -20.709023
v 5.421585 1.316916 -28.823286
v 7.961350 0.513985 -32.446686
v 5.421585 0.513985 -32.446686
v 7.961350 0.513985 -35.073223
v 5.421585 0.513985 -35.073223
v 10.914503 0.513985 -32.446686
v 10.914503 0.513985 -35.073223
v 13.704349 0.513985 -32.446686
v 13.704349 0.513985 -35.073223
v 10.914503 0.010452 -28.785864
v 13.704349 0.010452 -28.785864
v 10.913814 0.000000 -13.576988
v 13.711376 0.000000 -13.576988
v 10.913814 0.000000 1.332376
v 10.913814 0.000000 4.142581
v 13.711376 0.000000 4.142581
v 13.711376 0.000000 1.332376
v -10.000000 2.896691 -1.000000
v -10.000000 2.896691 6.670588
v -2.365085 2.896691 -1.000000
v -2.365085 2.896691 -6.526343
v 1.000000 2.896691 -10.006763
v -2.365085 2.896691 -10.006763
v 1.000000 2.896691 -14.958153
v -8.566453 2.896691 -14.958153
v -8.566453 2.896691 -12.192629
v -8.566453 2.896691 -3.049470
v -12.037467 2.896691 -3.049470
v -5.180098 2.896691 -12.192629
v -5.180098 2.896691 -3.049470
v -14.605453 2.896691 -3.049470
v -5.180098 2.896691 -6.266507
v -20.700893 2.896691 -3.049470
v -13.978968 2.896691 6.670588
v -20.700893 2.896691 0.344445
v -20.700893 2.896691 3.540380
v -19.628548 2.896691 0.344445
v -19.628548 2.896691 3.540380
v -11.501295 2.896691 0.344445
v -11.501295 2.896691 3.540380
v -19.628548 2.896691 -2.308200
v -11.501295 2.896691 -2.308200
v -19.628548 2.896691 6.023707
v -11.501295 2.896691 6.023707
v -20.700893 2.896691 6.673890
v -2.163850 2.896691 -14.958153
v -4.805624 2.896691 -14.958153
v -10.000000 -3.303010 -1.000000
v -10.000000 -3.303010 6.670588
v -2.365085 -3.303010 -1.000000
v -2.365085 -3.303010 -6.526343
v 1.000000 -3.303010 -10.006763
v -2.365085 -3.303010 -10.006763
v 1.000000 -3.303010 -14.958153
v -8.566453 -3.303010 -14.958153
v -8.566453 -3.303010 -12.192629
v -8.566453 -3.303010 -3.049470
v -12.037467 -3.303010 -3.049470
v -5.180098 -3.303010 -12.192629
v -5.180098 -3.303010 -3.049470
v -14.605453 -3.303010 -3.049470
v -5.180098 -3.303010 -6.266507
v -20.700893 -3.303010 -3.049470
v -13.978968 -3.303010 6.670588
v -20.700893 -3.303010 0.344445
v -20.700893 -3.303010 3.540380
v -19.628548 -3.303010 0.344445
v -19.628548 -3.303010 3.540380
v -11.501295 -3.303010 0.344445
v -11.501295 -3.303010 3.540380
v -19.628548 -3.303010 -2.308200
v -11.501295 -3.303010 -2.308200
v -19.628548 -3.303010 6.023707
v -11.501295 -3.303010 6.023707
v -20.700893 -3.303010 6.673890
v -2.163850 -3.303010 -14.958153
v -4.805624 -3.303010 -14.958153
v 1.000000 2.893613 -1.000000
v 1.000000 2.893613 6.670588
v 5.938435 2.893613 6.670588
v 8.995562 2.893613 1.332376
v 5.938435 2.893613 1.332376
v 5.938435 2.893613 4.142580
v 1.000000 2.893613 -6.526343
v 8.332440 2.893613 -6.526343
v 8.332440 2.893613 -10.006763
v 8.995562 2.893613 -13.576988
v 1.000000 2.893613 -19.909542
v 8.332440 2.893613 -19.909542
v 8.332440 2.893613 -14.958153
v 8.332440 2.893613 -18.223997
v 1.000000 2.893613 -18.223997
v -2.163850 2.893613 -18.223997
v -2.163850 2.893613 -22.503790
v -0.098173 2.893613 -22.503790
v 7.961350 2.893613 -25.166023
v 7.961350 2.893613 -22.503790
v -0.098173 2.893613 -20.709023
v 7.961350 2.893613 -20.709023
v 7.961350 2.893613 -28.823286
v 5.421585 2.893613 -20.709023
v 7.961350 2.893613 -32.446686
v 10.914503 2.893613 -32.446686
v 10.914503 2.893613 -28.785864
v 10.913814 2.893613 -13.576988
v 1.000000 -3.309322 6.670588
v 5.938435 -3.309322 6.670588
v 1.000000 -3.309322 -1.000000
v 5.938435 -3.309322 1.332376
v 8.995562 -3.309322 1.332376
v 5.938435 -3.309322 4.142580
v 1.000000 -3.309322 -6.526343
v 8.332440 -3.309322 -10.006763
v 8.332440 -3.309322 -6.526343
v 8.995562 -3.309322 -13.576988
v 1.000000 -3.309322 -19.909542
v 8.332440 -3.309322 -19.909542
v 8.332440 -3.309322 -18.223997
v 8.332440 -3.309322 -14.958153
v 1.000000 -3.309322 -18.223997
v -2.163850 -3.309322 -18.223997
v -2.163850 -3.309322 -22.503790
v -0.098173 -3.309322 -22.503790
v 7.961350 -3.309322 -25.166023
v 7.961350 -3.309322 -22.503790
v 7.961350 -3.309322 -20.709023
v 5.421585 -3.309322 -20.709023
v -0.098173 -3.309322 -20.709023
v 7.961350 -3.309322 -28.823286
v 7.961350 -3.309322 -32.446686
v 10.914503 -3.309322 -32.446686
v 10.914503 -3.309322 -28.785864
v 10.913814 -3.309322 -13.576988
v 8.332440 1.559307 -13.095622
v 8.332440 2.674158 -13.095622
v 8.332440 1.559307 -10.006763
v 8.332440 2.674158 -10.006763
v 8.332440 2.674158 -6.815011
v 8.332440 1.559307 -6.815011
v 8.995562 1.559307 -6.815011
v 8.995562 2.674158 -6.815011
v 8.995562 1.559307 -13.095622
v 8.995562 2.674158 -13.095622
v 1.000000 2.914708 11.000001
v -10.000000 2.914708 9.541177
v -10.000000 2.914708 11.000001
v 1.000000 2.914708 9.541177
v 8.995562 2.914708 6.670590
v 8.995562 2.914708 9.541177
v 5.938435 2.914708 9.541177
v 8.995562 2.914708 4.142580
v 15.344978 2.914708 1.332376
v 15.344978 2.914708 4.142580
v -2.365084 2.914708 11.000001
v 15.344978 2.914708 -13.576988
v -8.566453 2.914708 -18.223997
v -12.037467 2.914708 -14.958153
v -12.037467 2.914708 -18.223997
v -12.037467 2.914708 -12.192629
v -8.566453 2.914708 -24.365179
v -12.037467 2.914708 -24.365179
v -14.605453 2.914708 -12.192629
v -14.605453 2.914708 -6.266507
v -24.030809 2.914708 -3.049470
v -24.030809 2.914708 -6.266507
v -20.700893 2.914708 -6.266507
v -13.978968 2.914708 9.541177
v -24.030809 2.914708 9.534513
v -20.700893 2.914708 9.534513
v -24.030809 2.914708 0.344444
v -24.030809 2.914708 3.540380
v -24.030809 2.914708 6.673890
v -4.805624 2.914708 -18.223997
v -2.163850 2.914708 -25.166023
v -4.805624 2.914708 -25.166023
v -4.805624 2.914708 -22.503790
v -0.098173 2.914708 -25.166023
v -0.098173 2.914708 -28.823288
v 5.421585 2.914708 -28.823288
v 5.421585 2.914708 -32.446686
v 7.961350 2.914708 -35.073223
v 5.421585 2.914708 -35.073223
v 10.914503 2.914708 -35.073223
v 13.704350 2.914708 -32.446686
v 13.704350 2.914708 -35.073223
v 13.704350 2.914708 -28.785866
v 13.711376 2.914708 -13.576988
v 10.913814 2.914708 4.142580
v 13.711376 2.914708 4.142580
v -25.727982 2.914708 13.827630
v 17.633236 2.914708 13.827630
v -25.727982 2.914708 -37.183239
v 17.633236 2.914708 -37.183239
v 1.000000 -3.737010 11.000001
v -10.000000 -3.737010 9.541177
v -10.000000 -3.737010 11.000001
v 1.000000 -3.737010 9.541177
v 8.995562 -3.737010 6.670590
v 8.995562 -3.737010 9.541177
v 5.938435 -3.737010 9.541177
v 8.995562 -3.737010 4.142580
v 15.344978 -3.737010 1.332376
v 15.344978 -3.737010 4.142580
v -2.365084 -3.737010 11.000001
v 15.344978 -3.737010 -13.576988
v -8.566453 -3.737010 -18.223997
v -12.037467 -3.737010 -14.958153
v -12.037467 -3.737010 -18.223997
v -12.037467 -3.737010 -12.192629
v -8.566453 -3.737010 -24.365179
v -12.037467 -3.737010 -24.365179
v -14.605453 -3.737010 -12.192629
v -14.605453 -3.737010 -6.266507
v -24.030809 -3.737010 -3.049470
v -24.030809 -3.737010 -6.266507
v -20.700893 -3.737010 -6.266507
v -13.978968 -3.737010 9.541177
v -24.030809 -3.737010 9.534513
v -20.700893 -3.737010 9.534513
v -24.030809 -3.737010 0.344444
v -24.030809 -3.737010 3.540380
v -24.030809 -3.737010 6.673890
v -4.805624 -3.737010 -18.223997
v -2.163850 -3.737010 -25.166023
v -4.805624 -3.737010 -25.166023
v -4.805624 -3.737010 -22.503790
v -0.098173 -3.737010 -25.166023
v -0.098173 -3.737010 -28.823288
v 5.421585 -3.737010 -28.823288
v 5.421585 -3.737010 -32.446686
v 7.961350 -3.737010 -35.073223
v 5.421585 -3.737010 -35.073223
v 10.914503 -3.737010 -35.073223
v 13.704350 -3.737010 -32.446686
v 13.704350 -3.737010 -35.073223
v 13.704350 -3.737010 -28.785866
v 13.711376 -3.737010 -13.576988
v 10.913814 -3.737010 4.142580
v 13.711376 -3.737010 4.142580
v -25.727982 -3.737010 13.827630
v 17.633236 -3.737010 13.827630
v -25.727982 -3.737010 -37.183239
v 17.633236 -3.737010 -37.183239
vn -0.0000 1.0000 -0.0000
vn -0.0000 0.9728 0.2318
vn 0.1923 0.9813 -0.0000
vn -0.0000 0.9763 -0.2163
vn -0.0000 0.9907 0.1363
vn -0.0000 1.0000 0.0007
vn -0.0000 -1.0000 -0.0000
vn -0.0000 -0.0000 -1.0000
vn 1.0000 -0.0000 -0.0000
vn -0.0000 -0.0000 1.0000
vn -1.0000 -0.0000 -0.0000
vn 0.0005 -0.0000 1.0000
vn 0.0010 -0.0000 -1.0000
vn -1.0000 -0.0000 0.0005
vt 0.701479 0.719608
vt 0.875000 0.719608
vt 0.875000 0.750000
vt 0.701479 0.750000
vt 0.701479 0.500000
vt 0.875000 0.500000
vt 0.875000 0.659804
vt 0.701479 0.659804
vt 0.625000 0.659804
vt 0.625000 0.719608
vt 0.625000 0.659804
vt 0.625000 0.500000
vt 0.625000 0.750000
vt 0.000000 0.000000
vt 0.375000 0.294683
vt 0.625000 0.463696
vt 0.625000 0.294683
vt 0.375000 0.955317
vt 0.625000 0.786304
vt 0.375000 0.786304
vt 0.169683 0.622952
vt 0.338696 0.750000
vt 0.338696 0.500000
vt 0.661304 0.750000
vt 0.830317 0.750000
vt 0.830317 0.622952
vt 0.375000 0.463696
vt 0.625000 0.955317
vt 0.169683 0.500000
vt 0.169683 0.750000
vt 0.830317 0.500000
vt 0.661304 0.500000
s 0
usemtl Material
f 19/1/1 6/2/1 7/3/1 20/4/1
f 21/5/1 5/6/1 2/7/1 22/8/1
f 22/8/1 2/7/1 6/2/1 19/1/1
f 4/9/1 8/10/1 12/10/1 11/9/1
f 11/9/1 12/10/1 10/10/1 9/9/1
f 15/9/1 16/9/1 13/9/1 14/9/1
f 11/9/1 9/9/1 16/9/1 15/9/1
f 112/11/1 111/9/1 18/9/1 17/9/1
f 4/9/1 22/8/1 19/1/1 8/10/1
f 1/12/1 21/5/1 22/8/1 4/9/1
f 8/10/1 19/1/1 20/4/1 3/13/1
f 21/5/2 1/12/2 23/12/2 24/5/2
f 24/5/1 23/12/1 25/12/1 26/5/1
f 25/12/1 23/12/1 27/12/1 28/12/1
f 112/11/1 17/9/1 30/9/1 108/11/1
f 36/12/1 35/12/1 32/12/1 31/12/1
f 25/12/1 28/12/1 34/12/1 33/12/1
f 33/12/1 34/12/1 35/12/1 36/12/1
f 80/12/1 79/12/1 38/12/1 37/12/1
f 37/12/1 38/12/1 40/12/1 39/12/1
f 37/12/1 39/12/1 42/12/1 41/12/1
f 40/12/1 38/12/1 43/12/1 44/12/1
f 51/12/1 52/12/1 46/12/1 45/12/1
f 51/12/1 45/12/1 48/12/1 53/12/1
f 52/12/1 42/12/1 49/12/1 54/12/1
f 46/12/1 52/12/1 54/12/1 50/12/1
f 41/12/1 51/12/1 53/12/1 47/12/1
f 41/12/1 42/12/1 52/12/1 51/12/1
f 57/12/1 58/12/1 56/12/1 55/12/1
f 50/12/1 54/12/1 58/12/1 57/12/1
f 6/2/1 2/7/1 59/7/1 60/2/1
f 75/12/1 77/12/1 61/12/1 62/12/1
f 57/12/1 55/12/1 64/12/1 63/12/1
f 63/12/1 64/12/1 65/12/1 66/12/1
f 63/12/1 66/12/1 68/12/1 67/12/1
f 67/12/1 68/12/1 70/12/1 69/12/1
f 67/12/1 69/12/1 72/12/1 71/12/1
f 70/12/1 68/12/1 73/12/1 74/12/1
f 60/2/3 59/7/3 75/7/3 62/2/3
f 66/12/1 65/12/1 77/12/1 75/12/1
f 33/12/1 36/12/1 78/12/1 76/12/1
f 76/12/1 78/12/1 79/12/1 80/12/1
f 83/12/1 84/12/1 81/12/1 82/12/1
f 79/12/1 78/12/1 84/12/1 83/12/1
f 81/12/1 84/12/1 86/12/1 85/12/1
f 93/12/1 94/12/1 88/12/1 87/12/1
f 94/12/1 86/12/1 89/12/1 95/12/1
f 93/12/1 87/12/1 92/12/1 96/12/1
f 85/12/1 93/12/1 96/12/1 91/12/1
f 88/12/1 94/12/1 95/12/1 90/12/1
f 85/12/1 86/12/1 94/12/1 93/12/1
f 96/12/4 92/12/4 97/12/4 98/12/4
f 98/12/1 97/12/1 99/12/1 100/12/1
f 99/12/1 97/12/1 101/12/1 102/12/1
f 102/12/1 101/12/1 103/12/1 104/12/1
f 103/12/5 101/12/5 105/12/5 106/12/5
f 106/12/6 105/12/6 107/12/6 108/12/6
f 13/9/1 109/11/1 107/11/1 29/9/1
f 13/9/1 16/9/1 110/9/1 109/11/1
f 109/11/1 112/11/1 108/11/1 107/11/1
f 109/11/1 110/9/1 111/9/1 112/11/1
f 123/14/1 137/14/1 122/14/1
f 156/14/7 166/14/7 158/14/7
f 122/14/8 125/14/8 155/14/8
f 116/14/9 115/14/9 145/14/9
f 133/14/9 138/14/9 168/14/9
f 126/14/8 123/14/8 153/14/8
f 115/14/10 113/14/10 143/14/10
f 142/14/8 141/14/8 171/14/8
f 125/14/11 127/14/11 157/14/11
f 129/14/12 140/14/12 170/14/12
f 128/14/8 126/14/8 156/14/8
f 117/14/10 118/14/10 148/14/10
f 140/14/11 131/14/11 161/14/11
f 114/14/10 129/14/10 159/14/10
f 113/14/9 114/14/9 144/14/9
f 120/14/8 142/14/8 172/14/8
f 130/14/11 128/14/11 158/14/11
f 132/14/10 130/14/10 160/14/10
f 118/14/9 116/14/9 146/14/9
f 131/14/8 133/14/8 163/14/8
f 119/14/9 117/14/9 147/14/9
f 135/14/11 134/14/11 164/14/11
f 141/14/8 119/14/8 149/14/8
f 137/14/10 136/14/10 166/14/10
f 121/14/11 120/14/11 150/14/11
f 136/14/9 132/14/9 162/14/9
f 123/14/8 122/14/8 152/14/8
f 134/14/11 137/14/11 167/14/11
f 127/14/11 124/14/11 154/14/11
f 138/14/8 139/14/8 169/14/8
f 124/14/10 121/14/10 151/14/10
f 139/14/11 135/14/11 165/14/11
f 140/14/1 138/14/1 131/14/1
f 131/14/1 138/14/1 133/14/1
f 129/14/1 138/14/1 140/14/1
f 129/14/1 139/14/1 138/14/1
f 119/14/1 141/14/1 117/14/1
f 117/14/1 141/14/1 118/14/1
f 142/14/1 124/14/1 141/14/1
f 141/14/1 124/14/1 118/14/1
f 121/14/1 124/14/1 120/14/1
f 120/14/1 124/14/1 142/14/1
f 118/14/1 127/14/1 116/14/1
f 114/14/1 139/14/1 129/14/1
f 114/14/1 135/14/1 139/14/1
f 113/14/1 135/14/1 114/14/1
f 113/14/1 134/14/1 135/14/1
f 118/14/1 124/14/1 127/14/1
f 116/14/1 125/14/1 115/14/1
f 125/14/1 116/14/1 127/14/1
f 113/14/1 137/14/1 134/14/1
f 136/14/1 130/14/1 132/14/1
f 115/14/1 125/14/1 113/14/1
f 113/14/1 122/14/1 137/14/1
f 136/14/1 128/14/1 130/14/1
f 137/14/1 126/14/1 136/14/1
f 136/14/1 126/14/1 128/14/1
f 122/14/1 113/14/1 125/14/1
f 137/14/1 123/14/1 126/14/1
f 148/14/7 171/14/7 147/14/7
f 147/14/7 171/14/7 149/14/7
f 148/14/7 154/14/7 171/14/7
f 171/14/7 154/14/7 172/14/7
f 172/14/7 154/14/7 150/14/7
f 150/14/7 154/14/7 151/14/7
f 146/14/7 157/14/7 148/14/7
f 157/14/7 154/14/7 148/14/7
f 163/14/7 168/14/7 161/14/7
f 161/14/7 168/14/7 170/14/7
f 168/14/7 159/14/7 170/14/7
f 169/14/7 159/14/7 168/14/7
f 145/14/7 155/14/7 146/14/7
f 155/14/7 157/14/7 146/14/7
f 169/14/7 144/14/7 159/14/7
f 165/14/7 144/14/7 169/14/7
f 165/14/7 143/14/7 144/14/7
f 164/14/7 143/14/7 165/14/7
f 145/14/7 143/14/7 155/14/7
f 155/14/7 143/14/7 152/14/7
f 167/14/7 143/14/7 164/14/7
f 143/14/7 167/14/7 152/14/7
f 152/14/7 167/14/7 153/14/7
f 167/14/7 156/14/7 153/14/7
f 160/14/7 166/14/7 162/14/7
f 166/14/7 156/14/7 167/14/7
f 158/14/7 166/14/7 160/14/7
f 122/14/8 155/14/8 152/14/8
f 116/14/9 145/14/9 146/14/9
f 133/14/9 168/14/9 163/14/9
f 126/14/8 153/14/8 156/14/8
f 115/14/10 143/14/10 145/14/10
f 142/14/8 171/14/8 172/14/8
f 125/14/11 157/14/11 155/14/11
f 129/14/12 170/14/12 159/14/12
f 128/14/8 156/14/8 158/14/8
f 117/14/10 148/14/10 147/14/10
f 140/14/11 161/14/11 170/14/11
f 114/14/10 159/14/10 144/14/10
f 113/14/9 144/14/9 143/14/9
f 120/14/8 172/14/8 150/14/8
f 130/14/11 158/14/11 160/14/11
f 132/14/10 160/14/10 162/14/10
f 118/14/9 146/14/9 148/14/9
f 131/14/8 163/14/8 161/14/8
f 119/14/9 147/14/9 149/14/9
f 135/14/11 164/14/11 165/14/11
f 141/14/8 149/14/8 171/14/8
f 137/14/10 166/14/10 167/14/10
f 121/14/11 150/14/11 151/14/11
f 136/14/9 162/14/9 166/14/9
f 123/14/8 152/14/8 153/14/8
f 134/14/11 167/14/11 164/14/11
f 127/14/11 154/14/11 157/14/11
f 138/14/8 169/14/8 168/14/8
f 124/14/10 151/14/10 154/14/10
f 139/14/11 165/14/11 169/14/11
f 180/14/1 177/14/1 176/14/1
f 210/14/7 208/14/7 214/14/7
f 184/14/11 213/14/11 186/14/11
f 198/14/8 225/14/8 197/14/8
f 185/14/11 229/14/11 230/14/11
f 199/14/9 226/14/9 198/14/9
f 186/14/11 214/14/11 185/14/11
f 200/14/9 227/14/9 199/14/9
f 187/14/9 211/14/9 183/14/9
f 174/14/10 202/14/10 175/14/10
f 182/14/10 228/14/10 200/14/10
f 188/14/10 215/14/10 187/14/10
f 173/14/11 201/14/11 174/14/11
f 189/14/11 216/14/11 188/14/11
f 177/14/10 205/14/10 176/14/10
f 190/14/8 217/14/8 189/14/8
f 175/14/9 206/14/9 178/14/9
f 191/14/11 220/14/11 192/14/11
f 178/14/9 204/14/9 177/14/9
f 194/14/8 222/14/8 196/14/8
f 179/14/11 203/14/11 173/14/11
f 192/14/11 221/14/11 194/14/11
f 209/14/11 180/14/11 234/14/11
f 193/14/9 218/14/9 190/14/9
f 180/14/8 207/14/8 179/14/8
f 195/14/11 219/14/11 191/14/11
f 182/14/9 237/14/9 210/14/9
f 176/14/9 235/14/9 236/14/9
f 196/14/8 223/14/8 193/14/8
f 183/14/10 212/14/10 184/14/10
f 197/14/11 224/14/11 195/14/11
f 229/15/10 238/16/10 230/17/10
f 234/18/8 236/19/8 235/20/8
f 231/21/1 235/22/1 237/23/1
f 236/24/7 233/25/7 232/26/7
f 193/14/1 190/14/1 189/14/1
f 189/14/1 188/14/1 193/14/1
f 188/14/1 187/14/1 193/14/1
f 193/14/1 187/14/1 183/14/1
f 193/14/1 183/14/1 196/14/1
f 183/14/1 184/14/1 196/14/1
f 194/14/1 196/14/1 184/14/1
f 192/14/1 194/14/1 184/14/1
f 191/14/1 192/14/1 199/14/1
f 192/14/1 184/14/1 199/14/1
f 198/14/1 197/14/1 195/14/1
f 195/14/1 191/14/1 199/14/1
f 195/14/1 199/14/1 198/14/1
f 200/14/1 199/14/1 184/14/1
f 200/14/1 184/14/1 186/14/1
f 182/14/1 200/14/1 185/14/1
f 185/14/1 200/14/1 186/14/1
f 182/14/1 185/14/1 181/14/1
f 174/14/1 175/14/1 178/14/1
f 180/14/1 179/14/1 173/14/1
f 173/14/1 174/14/1 178/14/1
f 173/14/1 178/14/1 177/14/1
f 182/14/1 181/14/1 180/14/1
f 180/14/1 173/14/1 177/14/1
f 176/14/1 182/14/1 180/14/1
f 226/14/7 227/14/7 224/14/7
f 227/14/7 228/14/7 212/14/7
f 219/14/7 227/14/7 220/14/7
f 227/14/7 219/14/7 224/14/7
f 228/14/7 210/14/7 214/14/7
f 227/14/7 212/14/7 220/14/7
f 224/14/7 225/14/7 226/14/7
f 212/14/7 228/14/7 213/14/7
f 206/14/7 202/14/7 201/14/7
f 203/14/7 207/14/7 209/14/7
f 206/14/7 201/14/7 203/14/7
f 204/14/7 206/14/7 203/14/7
f 204/14/7 203/14/7 209/14/7
f 217/14/7 218/14/7 223/14/7
f 215/14/7 216/14/7 223/14/7
f 216/14/7 217/14/7 223/14/7
f 211/14/7 215/14/7 223/14/7
f 212/14/7 211/14/7 222/14/7
f 211/14/7 223/14/7 222/14/7
f 212/14/7 222/14/7 221/14/7
f 212/14/7 221/14/7 220/14/7
f 205/14/7 204/14/7 209/14/7
f 205/14/7 209/14/7 210/14/7
f 209/14/7 208/14/7 210/14/7
f 213/14/7 228/14/7 214/14/7
f 184/14/11 212/14/11 213/14/11
f 198/14/8 226/14/8 225/14/8
f 230/14/11 232/14/11 181/14/11
f 185/14/11 214/14/11 229/14/11
f 214/14/11 208/14/11 229/14/11
f 208/14/11 231/14/11 229/14/11
f 230/14/11 181/14/11 185/14/11
f 199/14/9 227/14/9 226/14/9
f 186/14/11 213/14/11 214/14/11
f 200/14/9 228/14/9 227/14/9
f 187/14/9 215/14/9 211/14/9
f 174/14/10 201/14/10 202/14/10
f 182/14/10 210/14/10 228/14/10
f 188/14/10 216/14/10 215/14/10
f 173/14/11 203/14/11 201/14/11
f 189/14/11 217/14/11 216/14/11
f 177/14/10 204/14/10 205/14/10
f 190/14/8 218/14/8 217/14/8
f 175/14/9 202/14/9 206/14/9
f 191/14/11 219/14/11 220/14/11
f 178/14/9 206/14/9 204/14/9
f 194/14/8 221/14/8 222/14/8
f 179/14/11 207/14/11 203/14/11
f 192/14/11 220/14/11 221/14/11
f 231/14/11 208/14/11 234/14/11
f 208/14/11 209/14/11 234/14/11
f 180/14/11 181/14/11 233/14/11
f 181/14/11 232/14/11 233/14/11
f 180/14/11 233/14/11 234/14/11
f 193/14/9 223/14/9 218/14/9
f 180/14/8 209/14/8 207/14/8
f 195/14/11 224/14/11 219/14/11
f 182/14/9 238/14/9 237/14/9
f 236/14/9 238/14/9 182/14/9
f 176/14/9 205/14/9 235/14/9
f 205/14/9 210/14/9 235/14/9
f 210/14/9 237/14/9 235/14/9
f 236/14/9 182/14/9 176/14/9
f 196/14/8 222/14/8 223/14/8
f 183/14/10 211/14/10 212/14/10
f 197/14/11 225/14/11 224/14/11
f 229/15/10 237/27/10 238/16/10
f 234/18/8 233/28/8 236/19/8
f 237/23/1 229/29/1 231/21/1
f 231/21/1 234/30/1 235/22/1
f 232/26/7 230/31/7 238/32/7
f 238/32/7 236/24/7 232/26/7
f 249/14/1 286/14/1 239/14/1
f 250/14/1 286/14/1 288/14/1
f 259/14/1 260/14/1 285/14/1
f 269/14/1 273/14/1 270/14/1
f 299/14/7 335/14/7 291/14/7
f 300/14/7 336/14/7 297/14/7
f 335/14/7 310/14/7 309/14/7
f 327/14/7 323/14/7 337/14/7
f 267/14/9 263/14/9 313/14/9
f 268/14/10 251/14/10 301/14/10
f 278/14/10 276/14/10 326/14/10
f 259/14/9 265/14/9 315/14/9
f 253/14/9 252/14/9 302/14/9
f 279/14/11 280/14/11 330/14/11
f 265/14/9 266/14/9 316/14/9
f 252/14/9 254/14/9 304/14/9
f 280/14/10 278/14/10 328/14/10
f 244/14/11 243/14/11 293/14/11
f 266/14/9 267/14/9 317/14/9
f 255/14/10 256/14/10 306/14/10
f 281/14/11 279/14/11 329/14/11
f 240/14/9 241/14/9 291/14/9
f 264/14/13 262/14/13 312/14/13
f 256/14/9 253/14/9 303/14/9
f 282/14/14 281/14/14 331/14/14
f 241/14/8 249/14/8 299/14/8
f 269/14/10 270/14/10 320/14/10
f 251/14/11 255/14/11 305/14/11
f 246/14/8 283/14/8 333/14/8
f 239/14/11 242/14/11 292/14/11
f 271/14/9 268/14/9 318/14/9
f 254/14/10 257/14/10 307/14/10
f 250/14/10 282/14/10 332/14/10
f 245/14/8 244/14/8 294/14/8
f 270/14/9 271/14/9 321/14/9
f 257/14/9 258/14/9 308/14/9
f 283/14/8 284/14/8 334/14/8
f 242/14/8 245/14/8 295/14/8
f 272/14/10 269/14/10 319/14/10
f 260/14/9 259/14/9 309/14/9
f 285/14/11 287/14/11 337/14/11
f 243/14/11 246/14/11 296/14/11
f 274/14/10 273/14/10 323/14/10
f 261/14/10 260/14/10 310/14/10
f 286/14/10 285/14/10 335/14/10
f 248/14/11 247/14/11 297/14/11
f 273/14/9 272/14/9 322/14/9
f 258/14/10 261/14/10 311/14/10
f 288/14/9 286/14/9 336/14/9
f 284/14/8 248/14/8 298/14/8
f 275/14/9 274/14/9 324/14/9
f 262/14/8 240/14/8 290/14/8
f 287/14/8 288/14/8 338/14/8
f 249/14/8 239/14/8 289/14/8
f 276/14/10 277/14/10 327/14/10
f 263/14/8 264/14/8 314/14/8
f 247/14/11 250/14/11 300/14/11
f 277/14/9 275/14/9 325/14/9
f 243/14/1 283/14/1 246/14/1
f 284/14/1 286/14/1 248/14/1
f 243/14/1 284/14/1 283/14/1
f 244/14/1 284/14/1 243/14/1
f 285/14/1 264/14/1 263/14/1
f 262/14/1 241/14/1 240/14/1
f 285/14/1 262/14/1 264/14/1
f 244/14/1 286/14/1 284/14/1
f 239/14/1 245/14/1 242/14/1
f 245/14/1 286/14/1 244/14/1
f 285/14/1 241/14/1 262/14/1
f 285/14/1 249/14/1 241/14/1
f 239/14/1 286/14/1 245/14/1
f 285/14/1 286/14/1 249/14/1
f 250/14/1 281/14/1 282/14/1
f 279/14/1 288/14/1 280/14/1
f 250/14/1 288/14/1 281/14/1
f 281/14/1 288/14/1 279/14/1
f 286/14/1 247/14/1 248/14/1
f 286/14/1 250/14/1 247/14/1
f 252/14/1 257/14/1 254/14/1
f 257/14/1 261/14/1 258/14/1
f 257/14/1 260/14/1 261/14/1
f 253/14/1 257/14/1 252/14/1
f 287/14/1 260/14/1 256/14/1
f 256/14/1 260/14/1 253/14/1
f 263/14/1 267/14/1 285/14/1
f 285/14/1 260/14/1 287/14/1
f 267/14/1 266/14/1 285/14/1
f 266/14/1 265/14/1 285/14/1
f 253/14/1 260/14/1 257/14/1
f 265/14/1 259/14/1 285/14/1
f 268/14/1 271/14/1 251/14/1
f 251/14/1 271/14/1 255/14/1
f 255/14/1 273/14/1 256/14/1
f 256/14/1 273/14/1 287/14/1
f 287/14/1 277/14/1 288/14/1
f 288/14/1 278/14/1 280/14/1
f 288/14/1 276/14/1 278/14/1
f 288/14/1 277/14/1 276/14/1
f 271/14/1 270/14/1 255/14/1
f 270/14/1 273/14/1 255/14/1
f 287/14/1 273/14/1 277/14/1
f 277/14/1 273/14/1 275/14/1
f 275/14/1 273/14/1 274/14/1
f 273/14/1 269/14/1 272/14/1
f 295/14/7 289/14/7 292/14/7
f 294/14/7 336/14/7 295/14/7
f 295/14/7 336/14/7 289/14/7
f 333/14/7 293/14/7 296/14/7
f 333/14/7 334/14/7 293/14/7
f 293/14/7 334/14/7 294/14/7
f 336/14/7 334/14/7 298/14/7
f 336/14/7 294/14/7 334/14/7
f 314/14/7 335/14/7 313/14/7
f 291/14/7 312/14/7 290/14/7
f 312/14/7 335/14/7 314/14/7
f 336/14/7 299/14/7 289/14/7
f 291/14/7 335/14/7 312/14/7
f 336/14/7 335/14/7 299/14/7
f 297/14/7 336/14/7 298/14/7
f 336/14/7 300/14/7 338/14/7
f 338/14/7 329/14/7 330/14/7
f 300/14/7 331/14/7 338/14/7
f 329/14/7 338/14/7 331/14/7
f 331/14/7 300/14/7 332/14/7
f 303/14/7 310/14/7 306/14/7
f 306/14/7 310/14/7 337/14/7
f 337/14/7 310/14/7 335/14/7
f 335/14/7 317/14/7 313/14/7
f 335/14/7 316/14/7 317/14/7
f 302/14/7 307/14/7 303/14/7
f 307/14/7 310/14/7 303/14/7
f 307/14/7 302/14/7 304/14/7
f 311/14/7 307/14/7 308/14/7
f 310/14/7 307/14/7 311/14/7
f 335/14/7 315/14/7 316/14/7
f 335/14/7 309/14/7 315/14/7
f 305/14/7 321/14/7 301/14/7
f 301/14/7 321/14/7 318/14/7
f 337/14/7 323/14/7 306/14/7
f 306/14/7 323/14/7 305/14/7
f 330/14/7 328/14/7 338/14/7
f 338/14/7 327/14/7 337/14/7
f 328/14/7 326/14/7 338/14/7
f 326/14/7 327/14/7 338/14/7
f 305/14/7 320/14/7 321/14/7
f 305/14/7 323/14/7 320/14/7
f 320/14/7 323/14/7 319/14/7
f 319/14/7 323/14/7 322/14/7
f 323/14/7 325/14/7 324/14/7
f 325/14/7 323/14/7 327/14/7
f 267/14/9 313/14/9 317/14/9
f 268/14/10 301/14/10 318/14/10
f 278/14/10 326/14/10 328/14/10
f 259/14/9 315/14/9 309/14/9
f 253/14/9 302/14/9 303/14/9
f 279/14/11 330/14/11 329/14/11
f 265/14/9 316/14/9 315/14/9
f 252/14/9 304/14/9 302/14/9
f 280/14/10 328/14/10 330/14/10
f 244/14/11 293/14/11 294/14/11
f 266/14/9 317/14/9 316/14/9
f 255/14/10 306/14/10 305/14/10
f 281/14/11 329/14/11 331/14/11
f 240/14/9 291/14/9 290/14/9
f 264/14/13 312/14/13 314/14/13
f 256/14/9 303/14/9 306/14/9
f 282/14/14 331/14/14 332/14/14
f 241/14/8 299/14/8 291/14/8
f 269/14/10 320/14/10 319/14/10
f 251/14/11 305/14/11 301/14/11
f 246/14/8 333/14/8 296/14/8
f 239/14/11 292/14/11 289/14/11
f 271/14/9 318/14/9 321/14/9
f 254/14/10 307/14/10 304/14/10
f 250/14/10 332/14/10 300/14/10
f 245/14/8 294/14/8 295/14/8
f 270/14/9 321/14/9 320/14/9
f 257/14/9 308/14/9 307/14/9
f 283/14/8 334/14/8 333/14/8
f 242/14/8 295/14/8 292/14/8
f 272/14/10 319/14/10 322/14/10
f 260/14/9 309/14/9 310/14/9
f 285/14/11 337/14/11 335/14/11
f 243/14/11 296/14/11 293/14/11
f 274/14/10 323/14/10 324/14/10
f 261/14/10 310/14/10 311/14/10
f 286/14/10 335/14/10 336/14/10
f 248/14/11 297/14/11 298/14/11
f 273/14/9 322/14/9 323/14/9
f 258/14/10 311/14/10 308/14/10
f 288/14/9 336/14/9 338/14/9
f 284/14/8 298/14/8 334/14/8
f 275/14/9 324/14/9 325/14/9
f 262/14/8 290/14/8 312/14/8
f 287/14/8 338/14/8 337/14/8
f 249/14/8 289/14/8 299/14/8
f 276/14/10 327/14/10 326/14/10
f 263/14/8 314/14/8 313/14/8
f 247/14/11 300/14/11 297/14/11
f 277/14/9 325/14/9 327/14/9
